<?xml version="1.0" encoding="utf-8"?>
<!-- Generator: Adobe Illustrator 16.0.0, SVG Export Plug-In . SVG Version: 6.00 Build 0)  -->
<!DOCTYPE svg PUBLIC "-//W3C//DTD SVG 1.1//EN" "http://www.w3.org/Graphics/SVG/1.1/DTD/svg11.dtd">
<svg version="1.1" id="Overmap" xmlns="http://www.w3.org/2000/svg" xmlns:xlink="http://www.w3.org/1999/xlink" x="0px" y="0px"
	 width="1500px" height="1500px" viewBox="0 0 1500 1500" enable-background="new 0 0 1500 1500" xml:space="preserve">
<g>
	<path fill="none" stroke="#F9D87A" stroke-width="10" stroke-miterlimit="10" d="M90.083,371.417l155.194,155.831
		c3.881,3.897,11.557,7.067,17.057,7.046L578,533.039c5.5-0.021,9.988-4.54,9.974-10.04L587,144"/>
</g>
<g>
	<path fill="none" stroke="#F9D87A" stroke-width="10" stroke-miterlimit="10" d="M453,27l0.656,632
		c0.005,5.5,4.51,10.026,10.01,10.057l799.334,4.553c5.5,0.031,13.162-3.145,17.026-7.059l97.89-99.134"/>
</g>
<line fill="none" stroke="#F9D87A" stroke-width="10" stroke-miterlimit="10" x1="902.668" y1="673" x2="975.001" y2="741.999"/>
<line fill="none" stroke="#F9D87A" stroke-width="10" stroke-miterlimit="10" x1="748.002" y1="671.667" x2="1018.418" y2="940.082"/>
<line fill="none" stroke="#F9D87A" stroke-width="10" stroke-miterlimit="10" x1="1269.669" y1="671.668" x2="1443.002" y2="845.002"/>
<line fill="none" stroke="#F9D87A" stroke-width="10" stroke-miterlimit="10" x1="689.003" y1="671.667" x2="689.67" y2="1140"/>
<path fill="none" stroke="#F9D87A" stroke-width="10" stroke-miterlimit="10" d="M689.003,740.333"/>
<path fill="none" stroke="#F9D87A" stroke-width="10" stroke-miterlimit="10" d="M693.67,742.332"/>
<line fill="none" stroke="#F9D87A" stroke-width="10" stroke-miterlimit="10" x1="1394.502" y1="1440.498" x2="689.004" y2="740.332"/>
<line fill="none" stroke="#F9D87A" stroke-width="10" stroke-miterlimit="10" x1="1183.004" y1="1232" x2="1183.167" y2="1393.167"/>
<line fill="none" stroke="#F9D87A" stroke-width="10" stroke-miterlimit="10" x1="864.337" y1="913.5" x2="863.671" y2="1440.001"/>
<line fill="none" stroke="#F9D87A" stroke-width="10" stroke-miterlimit="10" x1="376" y1="534" x2="376" y2="828"/>
<g>
	<path fill="none" stroke="#F9D87A" stroke-width="10" stroke-miterlimit="10" d="M373.003,707.664l-86,0.598
		c-5.5,0.038-13.216,3.217-17.146,7.063L90.167,891.167"/>
</g>
<g>
	<path fill="none" stroke="#F9D87A" stroke-width="10" stroke-miterlimit="10" d="M280,712v44c0,5.5-4.5,9.924-9.999,9.83
		l-48.998-0.833"/>
</g>
<g>
	<path fill="none" stroke="#F9D87A" stroke-width="10" stroke-miterlimit="10" d="M454,598h122c5.5,0,9.978,4.5,9.951,10
		l-0.283,57.663"/>
</g>
<line fill="none" stroke="#F9D87A" stroke-width="10" stroke-miterlimit="10" x1="269" y1="534" x2="90" y2="534"/>
<g>
	<path fill="none" stroke="#F9D87A" stroke-width="10" stroke-miterlimit="10" d="M569,598h136c5.5,0,9.995-4.5,9.988-10
		l-0.592-562.333"/>
</g>
<line fill="none" stroke="#F9D87A" stroke-width="10" stroke-miterlimit="10" x1="714" y1="465.333" x2="1143.982" y2="35.351"/>
<g>
	<path fill="#C5EBF9" d="M-0.244,1091.25c-0.003-5.5,3.437-12.898,7.644-16.441l199.951-168.367C211.558,902.898,219.5,900,225,900
		h51c5.5,0,13.529-2.792,17.842-6.205l29.815-23.59C327.971,866.792,336,864,341.5,864H530c5.5,0,9.993,4.5,9.984,10l-0.469,295
		c-0.008,5.5,4.484,10,9.984,10H665c5.5,0,10,4.5,10,10v269c0,5.5-3.694,12.57-8.209,15.711l-29.582,20.578
		C632.694,1497.43,624.5,1500,619,1500H10c-5.5,0-10.003-4.5-10.006-10L-0.244,1091.25z"/>
</g>
</svg>
