<?xml version="1.0" encoding="utf-8"?>
<!-- Generator: Adobe Illustrator 16.0.0, SVG Export Plug-In . SVG Version: 6.00 Build 0)  -->
<!DOCTYPE svg PUBLIC "-//W3C//DTD SVG 1.1//EN" "http://www.w3.org/Graphics/SVG/1.1/DTD/svg11.dtd">
<svg version="1.1" id="Layer_1" xmlns="http://www.w3.org/2000/svg" xmlns:xlink="http://www.w3.org/1999/xlink" x="0px" y="0px"
	 width="22.812px" height="31.062px" viewBox="0 0 22.812 31.062" enable-background="new 0 0 22.812 31.062" xml:space="preserve">
<g id="train" transform="matrix(1.2317123,0,0,1.2317123,-81.360132,-113.23274)">
	<g id="g3576_1_">
		<path id="path3578_1_" fill="#FFFFFF" d="M75.305,92.37l-4.167,0.003c-1.941,0-3.369,1.559-3.369,3.257v12.029
			c0,1.645,1.288,2.995,2.582,3.203l-3.882,5.823h2.241l2.776-4.069h3.801h0.004h0.003h3.801l2.777,4.069h2.241l-3.882-5.823
			c1.294-0.209,2.583-1.558,2.583-3.203V95.631c0-1.698-1.43-3.257-3.371-3.257L75.305,92.37z M73.655,93.068h1.631h0.004h0.003
			h1.632c0.295,0,0.552,0.248,0.552,0.543v0.957c0,0.295-0.243,0.549-0.552,0.549h-1.632H75.29h-0.004h-1.631
			c-0.31,0-0.552-0.254-0.552-0.549V93.61C73.103,93.316,73.359,93.068,73.655,93.068z M71.25,95.765h4.036h0.007h4.036
			c1.097,0,1.679,0.785,1.679,1.686v2.165c0.008,1.041-0.751,1.679-1.679,1.679h-4.036H75.29h-0.004H71.25
			c-0.928,0-1.688-0.638-1.679-1.679V97.45C69.571,96.55,70.153,95.765,71.25,95.765z M71.067,106.154
			c0.816,0,1.479,0.661,1.479,1.477s-0.663,1.477-1.479,1.477s-1.477-0.661-1.477-1.477S70.251,106.154,71.067,106.154z
			 M79.477,106.154c0.816,0,1.477,0.661,1.477,1.477s-0.661,1.477-1.477,1.477S78,108.447,78,107.631S78.662,106.154,79.477,106.154
			z"/>
	</g>
	<g id="g3584_1_">
	</g>
</g>
</svg>
